<?xml version="1.0" encoding="utf-8"?>
<!-- Generator: Adobe Illustrator 16.0.3, SVG Export Plug-In . SVG Version: 6.00 Build 0)  -->
<!DOCTYPE svg PUBLIC "-//W3C//DTD SVG 1.1//EN" "http://www.w3.org/Graphics/SVG/1.1/DTD/svg11.dtd">
<svg version="1.1" id="Layer_1" xmlns="http://www.w3.org/2000/svg" xmlns:xlink="http://www.w3.org/1999/xlink" x="0px" y="0px"
	 width="288px" height="288px" viewBox="0 0 288 288" enable-background="new 0 0 288 288" xml:space="preserve">
<path fill="#222222" d="M36,0h216c19.883,0,36,16.118,36,36v216c0,19.883-16.117,36-36,36H36c-19.882,0-36-16.117-36-36V36
	C0,16.118,16.118,0,36,0z"/>
<path fill="#FFFFFF" d="M25.061,203.89c0.716-1.154,1.86-1.233,3.462-0.219c36.171,20.99,75.547,31.495,118.085,31.495
	c28.372,0,56.387-5.302,84.032-15.866l3.135-1.394c1.372-0.598,2.326-0.995,2.915-1.293c2.246-0.875,3.879-0.457,5.223,1.293
	c1.193,1.731,0.894,3.343-1.194,4.775c-2.547,1.89-5.969,4.079-10.009,6.507c-12.375,7.391-26.263,13.091-41.633,17.17
	c-15.221,4.039-30.292,6.068-44.926,6.068c-22.532,0-43.872-3.939-64.017-11.809c-20.096-7.898-38.002-19.001-54.019-33.326
	c-0.995-0.736-1.492-1.493-1.492-2.189c0-0.467,0.199-0.895,0.497-1.292L25.061,203.89z M90.371,142.031
	c0-9.998,2.458-18.533,7.392-25.637c4.924-7.063,11.64-12.435,20.294-16.066c7.919-3.333,17.469-5.72,28.97-7.163
	c3.879-0.458,10.277-1.025,19.101-1.731v-3.681c0-9.251-1.045-15.499-2.984-18.653c-3.004-4.277-7.76-6.466-14.325-6.466h-1.812
	c-4.775,0.458-8.914,1.95-12.395,4.577c-3.482,2.686-5.72,6.267-6.715,10.903c-0.597,2.984-2.049,4.626-4.328,5.074l-25.069-3.133
	c-2.467-0.597-3.7-1.791-3.7-3.88c0-0.458,0.069-0.896,0.218-1.493c2.458-12.833,8.506-22.384,18.106-28.65
	c9.709-6.128,20.891-9.7,33.723-10.446h5.373c16.415,0,29.417,4.317,38.68,12.833c1.342,1.492,2.686,2.984,4.028,4.775
	c1.194,1.641,2.229,3.124,2.815,4.477c0.746,1.333,1.492,3.283,1.939,5.67c0.598,2.527,1.045,4.179,1.343,5.074
	c0.299,1.035,0.617,2.984,0.757,6.118c0.1,3.114,0.199,4.905,0.199,5.501v52.527c0,3.741,0.597,7.163,1.641,10.307
	c1.045,3.113,2.09,5.371,3.134,6.706l5.074,6.704c0.896,1.353,1.353,2.546,1.353,3.581c0,1.194-0.596,2.249-1.791,3.124
	c-11.937,10.445-18.503,16.116-19.527,17.011c-1.643,1.344-3.731,1.492-6.269,0.448c-1.939-1.651-3.73-3.302-5.232-4.935
	l-3.083-3.452c-0.598-0.736-1.652-2.088-3.154-4.179l-2.984-4.327c-8.059,8.814-15.947,14.325-23.876,16.564
	c-4.914,1.491-10.873,2.259-18.206,2.259c-11.042,0-20.294-3.413-27.457-10.287c-7.163-6.864-10.744-16.563-10.744-29.248
	l-0.498-0.756L90.371,142.031z M127.707,137.674c0,5.63,1.393,10.146,4.228,13.569c2.835,3.383,6.715,5.094,11.49,5.094
	c0.448,0,1.055-0.07,1.941-0.198c0.895-0.16,1.332-0.229,1.651-0.229c6.107-1.592,10.743-5.501,14.166-11.719
	c1.642-2.785,2.835-5.77,3.582-9.053c0.895-3.184,1.193-5.87,1.342-7.958c0.149-1.94,0.149-5.372,0.149-9.998v-5.373
	c-8.356,0-14.764,0.598-19.101,1.792c-12.684,3.581-19.101,11.639-19.101,24.174l-0.348-0.2V137.674z M218.852,207.58
	c0.299-0.596,0.747-1.094,1.313-1.691c3.603-2.417,7.104-4.078,10.446-4.974c5.472-1.322,10.844-2.208,16.036-2.389
	c1.393-0.118,2.785,0,4.078,0.3c6.467,0.597,10.446,1.671,11.661,3.282c0.626,0.896,0.895,2.269,0.895,3.88v1.493
	c0,5.072-1.393,11.042-4.129,17.906c-2.766,6.864-6.606,12.415-11.5,16.713c-0.727,0.597-1.393,0.896-1.96,0.896
	c-0.298,0-0.597,0-0.896-0.12c-0.896-0.438-1.063-1.192-0.636-2.387c5.372-12.535,8.018-21.319,8.018-26.264
	c0-1.492-0.298-2.687-0.865-3.422c-1.442-1.652-5.472-2.557-12.178-2.557c-2.417,0-5.301,0.159-8.654,0.458
	c-3.61,0.446-6.964,0.895-9.947,1.342c-0.896,0-1.474-0.139-1.791-0.437c-0.298-0.3-0.358-0.469-0.199-0.768
	c0-0.168,0.06-0.298,0.199-0.626v-0.597L218.852,207.58z"/>
</svg>
