<svg xmlns="http://www.w3.org/2000/svg" viewBox="0 0 288 288"><path fill="#222222" d="M36 0h216c19.9 0 36 16.1 36 36v216c0 19.9-16.1 36-36 36H36c-19.9 0-36-16.1-36-36V36C0 16.1 16.1 0 36 0zM144 24.2c-32.6 0-36.6 0.2-49.4 0.7 -12.8 0.6-21.4 2.6-29.1 5.6 -7.9 3.1-14.6 7.2-21.2 13.8S33.5 57.6 30.5 65.5c-3 7.6-5 16.3-5.6 29.1 -0.6 12.8-0.7 16.8-0.7 49.4s0.2 36.6 0.7 49.4c0.6 12.8 2.6 21.5 5.6 29.1 3.1 7.9 7.2 14.6 13.8 21.2 6.7 6.7 13.3 10.8 21.2 13.8 7.6 3 16.3 5 29.1 5.6 12.8 0.6 16.8 0.7 49.4 0.7s36.6-0.1 49.4-0.7c12.8-0.6 21.5-2.6 29.1-5.6 7.9-3.1 14.6-7.2 21.2-13.8 6.7-6.7 10.8-13.3 13.8-21.2 3-7.6 5-16.3 5.6-29.1 0.6-12.8 0.7-16.8 0.7-49.4s-0.1-36.6-0.7-49.4c-0.6-12.8-2.6-21.5-5.6-29.1 -3.1-7.9-7.2-14.6-13.8-21.2 -6.7-6.7-13.3-10.8-21.2-13.8 -7.6-3-16.3-5-29.1-5.6C180.6 24.3 176.6 24.2 144 24.2zM144 45.7c32 0 35.8 0.2 48.4 0.7 11.7 0.5 18 2.5 22.2 4.1 5.6 2.2 9.6 4.8 13.8 8.9 4.2 4.2 6.8 8.2 8.9 13.8 1.6 4.2 3.6 10.6 4.1 22.2 0.6 12.6 0.7 16.4 0.7 48.4s-0.1 35.8-0.7 48.4c-0.6 11.7-2.6 18-4.2 22.2 -2.2 5.6-4.8 9.6-9 13.8 -4.2 4.2-8.2 6.8-13.8 8.9 -4.2 1.6-10.6 3.6-22.3 4.1 -12.7 0.6-16.5 0.7-48.5 0.7 -32.1 0-35.8-0.1-48.5-0.7 -11.7-0.6-18.1-2.6-22.3-4.2 -5.7-2.2-9.6-4.8-13.8-9 -4.2-4.2-6.9-8.2-9-13.8 -1.6-4.2-3.6-10.6-4.2-22.3 -0.4-12.6-0.6-16.5-0.6-48.4 0-31.9 0.2-35.8 0.6-48.5C46.5 83.6 48.4 77.2 50.1 73c2.1-5.7 4.8-9.6 9-13.8 4.2-4.2 8.1-6.9 13.8-9 4.2-1.7 10.5-3.6 22.2-4.2 12.7-0.4 16.5-0.6 48.5-0.6L144 45.7zM144 82.5c-34 0-61.5 27.6-61.5 61.5 0 34 27.6 61.5 61.5 61.5 34 0 61.5-27.6 61.5-61.5C205.5 110 178 82.5 144 82.5zM144 183.9c-22.1 0-39.9-17.9-39.9-39.9 0-22.1 17.9-39.9 39.9-39.9 22.1 0 39.9 17.9 39.9 39.9C183.9 166.1 166.1 183.9 144 183.9zM222.4 80c0 7.9-6.5 14.4-14.4 14.4 -7.9 0-14.4-6.5-14.4-14.4s6.5-14.4 14.4-14.4C215.9 65.7 222.4 72.1 222.4 80z"/></svg>