<svg xmlns="http://www.w3.org/2000/svg" version="1.1" viewBox="0 0 288 288"><path fill="#222222" d="M36 0h216c19.9 0 36 16.1 36 36v216c0 19.9-16.1 36-36 36H36c-19.9 0-36-16.1-36-36V36C0 16.1 16.1 0 36 0zM258.8 86.1c-2.8-10.1-10.7-18-20.9-20.9 -18.7-5-93.8-5-93.8-5s-75-0.1-93.8 5C40.2 68.1 32.3 76 29.4 86.1c-3.5 19.1-5.3 38.5-5.2 58 -0.1 19.4 1.7 38.7 5.2 57.8 2.8 10.1 10.7 18 20.9 20.9 18.7 5 93.8 5 93.8 5s75 0 93.8-5c10.1-2.8 18-10.7 20.9-20.9 3.5-19.1 5.1-38.4 5-57.7C263.9 124.7 262.3 105.3 258.8 86.1zM120.1 180v-71.8l62.6 36L120.1 180z"/></svg>